<svg width="96" height="96" xmlns="http://www.w3.org/2000/svg" xmlns:xlink="http://www.w3.org/1999/xlink" xml:space="preserve" overflow="hidden"><g transform="translate(-513 -447)"><path d="M574 481 594 481 594 461 592 461 592 476.688C592 476.693 591.996 476.697 591.991 476.697 591.986 476.697 591.982 476.693 591.982 476.688 581.867 459.571 559.791 453.895 542.674 464.009 525.557 474.124 519.881 496.2 529.996 513.317 540.111 530.434 562.187 536.111 579.303 525.996 581.601 524.638 583.74 523.029 585.682 521.199L584.309 519.744C570.645 532.631 549.122 532.001 536.235 518.338 523.348 504.674 523.978 483.151 537.641 470.264 551.305 457.377 572.828 458.006 585.715 471.67 587.784 473.863 589.552 476.322 590.972 478.981 590.975 478.986 590.973 478.992 590.968 478.995 590.967 478.996 590.965 478.996 590.963 478.996L574 478.996Z" stroke="#868AA5" stroke-width="8"/></g></svg>